# xmcd
#
# Track frame offsets:
#	150
#	19459
#	38491
#	59576
#	79712
#	100195
#	119982
#	137784
#	158139
#	179366
#	197658
#	216870
#	239695
#	255515
#
# Disc length: 3635 seconds
#
# Revision: 0
# Processed by: cddbd v1.5.2PL0 Copyright (c) Steve Scherf et al.
# Submitted via: dBpowerAMP V4.0
#
DISCID=cc0e310e
DTITLE=PUR - Abenteuerland - Nichts ohne Grund
DYEAR=1900
DGENRE=
TTITLE0=Ich lieb dich
TTITLE1=Nur zu dir
TTITLE2=Ganz egal
TTITLE3=Dass es dir Leid tut
TTITLE4=Ein graues Haar
TTITLE5=Wut im Bauch
TTITLE6=In Gedanken
TTITLE7=Lena
TTITLE8=Ein Lied für die Vergessenen
TTITLE9=Nichts ohne Grund
TTITLE10=Weisst du noch
TTITLE11=Im letzten Regen
TTITLE12=Ohne dich
TTITLE13=Geweint vor Glück
EXTD=
EXTT0=
EXTT1=
EXTT2=
EXTT3=
EXTT4=
EXTT5=
EXTT6=
EXTT7=
EXTT8=
EXTT9=
EXTT10=
EXTT11=
EXTT12=
EXTT13=
PLAYORDER=
